<mxfile host="app.diagrams.net" modified="2021-09-28T05:45:31.449Z" agent="5.0 (Macintosh; Intel Mac OS X 10_15_7) AppleWebKit/537.36 (KHTML, like Gecko) Chrome/89.0.4389.90 Safari/537.36" etag="DV4auiADW9l2efUG9CEN" version="15.3.5" type="github">
  <diagram id="5Sg-X9yChf6iL1VbNwYa" name="Page-1">
    <mxGraphModel dx="802" dy="412" grid="1" gridSize="10" guides="1" tooltips="1" connect="1" arrows="1" fold="1" page="1" pageScale="1" pageWidth="827" pageHeight="1169" math="0" shadow="0">
      <root>
        <mxCell id="0" />
        <mxCell id="1" parent="0" />
        <mxCell id="kdAL58r6JePdcPZZWrmH-1" value="" style="endArrow=none;html=1;startSize=14;endSize=14;sourcePerimeterSpacing=8;targetPerimeterSpacing=8;strokeWidth=2;" edge="1" parent="1">
          <mxGeometry width="50" height="50" relative="1" as="geometry">
            <mxPoint x="80" y="160" as="sourcePoint" />
            <mxPoint x="80" y="60" as="targetPoint" />
          </mxGeometry>
        </mxCell>
        <mxCell id="kdAL58r6JePdcPZZWrmH-2" value="" style="endArrow=none;html=1;startSize=14;endSize=14;sourcePerimeterSpacing=8;targetPerimeterSpacing=8;strokeWidth=2;" edge="1" parent="1">
          <mxGeometry width="50" height="50" relative="1" as="geometry">
            <mxPoint x="180" y="160" as="sourcePoint" />
            <mxPoint x="80" y="160" as="targetPoint" />
          </mxGeometry>
        </mxCell>
        <mxCell id="kdAL58r6JePdcPZZWrmH-3" value="" style="endArrow=none;html=1;startSize=14;endSize=14;sourcePerimeterSpacing=8;targetPerimeterSpacing=8;strokeWidth=2;" edge="1" parent="1">
          <mxGeometry width="50" height="50" relative="1" as="geometry">
            <mxPoint x="180" y="160" as="sourcePoint" />
            <mxPoint x="180" y="60" as="targetPoint" />
          </mxGeometry>
        </mxCell>
        <mxCell id="kdAL58r6JePdcPZZWrmH-5" value="&lt;font style=&quot;font-size: 17px&quot;&gt;main&lt;/font&gt;" style="rounded=0;whiteSpace=wrap;html=1;hachureGap=4;pointerEvents=0;" vertex="1" parent="1">
          <mxGeometry x="80" y="130" width="100" height="30" as="geometry" />
        </mxCell>
        <mxCell id="kdAL58r6JePdcPZZWrmH-6" value="&lt;font style=&quot;font-size: 17px&quot;&gt;start&lt;/font&gt;" style="rounded=0;whiteSpace=wrap;html=1;hachureGap=4;pointerEvents=0;" vertex="1" parent="1">
          <mxGeometry x="80" y="100" width="100" height="30" as="geometry" />
        </mxCell>
        <mxCell id="kdAL58r6JePdcPZZWrmH-7" value="" style="endArrow=none;html=1;startSize=14;endSize=14;sourcePerimeterSpacing=8;targetPerimeterSpacing=8;strokeWidth=2;" edge="1" parent="1">
          <mxGeometry width="50" height="50" relative="1" as="geometry">
            <mxPoint x="380" y="159.52" as="sourcePoint" />
            <mxPoint x="380" y="59.519999999999996" as="targetPoint" />
          </mxGeometry>
        </mxCell>
        <mxCell id="kdAL58r6JePdcPZZWrmH-8" value="" style="endArrow=none;html=1;startSize=14;endSize=14;sourcePerimeterSpacing=8;targetPerimeterSpacing=8;strokeWidth=2;" edge="1" parent="1">
          <mxGeometry width="50" height="50" relative="1" as="geometry">
            <mxPoint x="480.0000000000001" y="159.52" as="sourcePoint" />
            <mxPoint x="380" y="159.52" as="targetPoint" />
          </mxGeometry>
        </mxCell>
        <mxCell id="kdAL58r6JePdcPZZWrmH-9" value="" style="endArrow=none;html=1;startSize=14;endSize=14;sourcePerimeterSpacing=8;targetPerimeterSpacing=8;strokeWidth=2;" edge="1" parent="1">
          <mxGeometry width="50" height="50" relative="1" as="geometry">
            <mxPoint x="480.0000000000001" y="159.52" as="sourcePoint" />
            <mxPoint x="480.0000000000001" y="59.519999999999996" as="targetPoint" />
          </mxGeometry>
        </mxCell>
        <mxCell id="kdAL58r6JePdcPZZWrmH-10" value="&lt;font style=&quot;font-size: 17px&quot;&gt;main&lt;/font&gt;" style="rounded=0;whiteSpace=wrap;html=1;hachureGap=4;pointerEvents=0;" vertex="1" parent="1">
          <mxGeometry x="380" y="130" width="100" height="30" as="geometry" />
        </mxCell>
        <mxCell id="kdAL58r6JePdcPZZWrmH-11" value="&lt;font style=&quot;font-size: 17px&quot;&gt;start&lt;/font&gt;" style="rounded=0;whiteSpace=wrap;html=1;hachureGap=4;pointerEvents=0;" vertex="1" parent="1">
          <mxGeometry x="380" y="100" width="100" height="30" as="geometry" />
        </mxCell>
        <mxCell id="kdAL58r6JePdcPZZWrmH-12" value="" style="endArrow=none;html=1;startSize=14;endSize=14;sourcePerimeterSpacing=8;targetPerimeterSpacing=8;strokeWidth=2;" edge="1" parent="1">
          <mxGeometry width="50" height="50" relative="1" as="geometry">
            <mxPoint x="520" y="159.51999999999998" as="sourcePoint" />
            <mxPoint x="520" y="59.51999999999998" as="targetPoint" />
          </mxGeometry>
        </mxCell>
        <mxCell id="kdAL58r6JePdcPZZWrmH-13" value="" style="endArrow=none;html=1;startSize=14;endSize=14;sourcePerimeterSpacing=8;targetPerimeterSpacing=8;strokeWidth=2;" edge="1" parent="1">
          <mxGeometry width="50" height="50" relative="1" as="geometry">
            <mxPoint x="620" y="159.51999999999998" as="sourcePoint" />
            <mxPoint x="520" y="159.51999999999998" as="targetPoint" />
          </mxGeometry>
        </mxCell>
        <mxCell id="kdAL58r6JePdcPZZWrmH-14" value="" style="endArrow=none;html=1;startSize=14;endSize=14;sourcePerimeterSpacing=8;targetPerimeterSpacing=8;strokeWidth=2;" edge="1" parent="1">
          <mxGeometry width="50" height="50" relative="1" as="geometry">
            <mxPoint x="620" y="159.51999999999998" as="sourcePoint" />
            <mxPoint x="620" y="59.51999999999998" as="targetPoint" />
          </mxGeometry>
        </mxCell>
        <mxCell id="kdAL58r6JePdcPZZWrmH-15" value="" style="endArrow=none;html=1;startSize=14;endSize=14;sourcePerimeterSpacing=8;targetPerimeterSpacing=8;strokeWidth=2;" edge="1" parent="1">
          <mxGeometry width="50" height="50" relative="1" as="geometry">
            <mxPoint x="219.99999999999997" y="290" as="sourcePoint" />
            <mxPoint x="219.99999999999997" y="190" as="targetPoint" />
          </mxGeometry>
        </mxCell>
        <mxCell id="kdAL58r6JePdcPZZWrmH-16" value="" style="endArrow=none;html=1;startSize=14;endSize=14;sourcePerimeterSpacing=8;targetPerimeterSpacing=8;strokeWidth=2;" edge="1" parent="1">
          <mxGeometry width="50" height="50" relative="1" as="geometry">
            <mxPoint x="320" y="290" as="sourcePoint" />
            <mxPoint x="219.99999999999997" y="290" as="targetPoint" />
          </mxGeometry>
        </mxCell>
        <mxCell id="kdAL58r6JePdcPZZWrmH-17" value="" style="endArrow=none;html=1;startSize=14;endSize=14;sourcePerimeterSpacing=8;targetPerimeterSpacing=8;strokeWidth=2;" edge="1" parent="1">
          <mxGeometry width="50" height="50" relative="1" as="geometry">
            <mxPoint x="320" y="290" as="sourcePoint" />
            <mxPoint x="320" y="190" as="targetPoint" />
          </mxGeometry>
        </mxCell>
        <mxCell id="kdAL58r6JePdcPZZWrmH-18" value="" style="endArrow=none;html=1;startSize=14;endSize=14;sourcePerimeterSpacing=8;targetPerimeterSpacing=8;strokeWidth=2;" edge="1" parent="1">
          <mxGeometry width="50" height="50" relative="1" as="geometry">
            <mxPoint x="80" y="290" as="sourcePoint" />
            <mxPoint x="80" y="190" as="targetPoint" />
          </mxGeometry>
        </mxCell>
        <mxCell id="kdAL58r6JePdcPZZWrmH-19" value="" style="endArrow=none;html=1;startSize=14;endSize=14;sourcePerimeterSpacing=8;targetPerimeterSpacing=8;strokeWidth=2;" edge="1" parent="1">
          <mxGeometry width="50" height="50" relative="1" as="geometry">
            <mxPoint x="180" y="290" as="sourcePoint" />
            <mxPoint x="80" y="290" as="targetPoint" />
          </mxGeometry>
        </mxCell>
        <mxCell id="kdAL58r6JePdcPZZWrmH-20" value="" style="endArrow=none;html=1;startSize=14;endSize=14;sourcePerimeterSpacing=8;targetPerimeterSpacing=8;strokeWidth=2;" edge="1" parent="1">
          <mxGeometry width="50" height="50" relative="1" as="geometry">
            <mxPoint x="180" y="290" as="sourcePoint" />
            <mxPoint x="180" y="190" as="targetPoint" />
          </mxGeometry>
        </mxCell>
        <mxCell id="kdAL58r6JePdcPZZWrmH-21" value="&lt;font style=&quot;font-size: 17px&quot;&gt;main&lt;/font&gt;" style="rounded=0;whiteSpace=wrap;html=1;hachureGap=4;pointerEvents=0;" vertex="1" parent="1">
          <mxGeometry x="80" y="260.48" width="100" height="30" as="geometry" />
        </mxCell>
        <mxCell id="kdAL58r6JePdcPZZWrmH-22" value="&lt;font style=&quot;font-size: 17px&quot;&gt;start&lt;/font&gt;" style="rounded=0;whiteSpace=wrap;html=1;hachureGap=4;pointerEvents=0;" vertex="1" parent="1">
          <mxGeometry x="80" y="230.48000000000002" width="100" height="30" as="geometry" />
        </mxCell>
        <mxCell id="kdAL58r6JePdcPZZWrmH-23" value="&lt;font style=&quot;font-size: 17px&quot;&gt;run&lt;/font&gt;" style="rounded=0;whiteSpace=wrap;html=1;hachureGap=4;pointerEvents=0;" vertex="1" parent="1">
          <mxGeometry x="220" y="260.48" width="100" height="30" as="geometry" />
        </mxCell>
        <mxCell id="kdAL58r6JePdcPZZWrmH-24" value="" style="endArrow=none;html=1;startSize=14;endSize=14;sourcePerimeterSpacing=8;targetPerimeterSpacing=8;strokeWidth=2;" edge="1" parent="1">
          <mxGeometry width="50" height="50" relative="1" as="geometry">
            <mxPoint x="520.48" y="290" as="sourcePoint" />
            <mxPoint x="520.48" y="190" as="targetPoint" />
          </mxGeometry>
        </mxCell>
        <mxCell id="kdAL58r6JePdcPZZWrmH-25" value="" style="endArrow=none;html=1;startSize=14;endSize=14;sourcePerimeterSpacing=8;targetPerimeterSpacing=8;strokeWidth=2;" edge="1" parent="1">
          <mxGeometry width="50" height="50" relative="1" as="geometry">
            <mxPoint x="620.48" y="290" as="sourcePoint" />
            <mxPoint x="520.48" y="290" as="targetPoint" />
          </mxGeometry>
        </mxCell>
        <mxCell id="kdAL58r6JePdcPZZWrmH-26" value="" style="endArrow=none;html=1;startSize=14;endSize=14;sourcePerimeterSpacing=8;targetPerimeterSpacing=8;strokeWidth=2;" edge="1" parent="1">
          <mxGeometry width="50" height="50" relative="1" as="geometry">
            <mxPoint x="620.48" y="290" as="sourcePoint" />
            <mxPoint x="620.48" y="190" as="targetPoint" />
          </mxGeometry>
        </mxCell>
        <mxCell id="kdAL58r6JePdcPZZWrmH-27" value="" style="endArrow=none;html=1;startSize=14;endSize=14;sourcePerimeterSpacing=8;targetPerimeterSpacing=8;strokeWidth=2;" edge="1" parent="1">
          <mxGeometry width="50" height="50" relative="1" as="geometry">
            <mxPoint x="380" y="290" as="sourcePoint" />
            <mxPoint x="380" y="190" as="targetPoint" />
          </mxGeometry>
        </mxCell>
        <mxCell id="kdAL58r6JePdcPZZWrmH-28" value="" style="endArrow=none;html=1;startSize=14;endSize=14;sourcePerimeterSpacing=8;targetPerimeterSpacing=8;strokeWidth=2;" edge="1" parent="1">
          <mxGeometry width="50" height="50" relative="1" as="geometry">
            <mxPoint x="480.0000000000001" y="290" as="sourcePoint" />
            <mxPoint x="380" y="290" as="targetPoint" />
          </mxGeometry>
        </mxCell>
        <mxCell id="kdAL58r6JePdcPZZWrmH-29" value="" style="endArrow=none;html=1;startSize=14;endSize=14;sourcePerimeterSpacing=8;targetPerimeterSpacing=8;strokeWidth=2;" edge="1" parent="1">
          <mxGeometry width="50" height="50" relative="1" as="geometry">
            <mxPoint x="480.0000000000001" y="290" as="sourcePoint" />
            <mxPoint x="480.0000000000001" y="190" as="targetPoint" />
          </mxGeometry>
        </mxCell>
        <mxCell id="kdAL58r6JePdcPZZWrmH-30" value="&lt;font style=&quot;font-size: 17px&quot;&gt;main&lt;/font&gt;" style="rounded=0;whiteSpace=wrap;html=1;hachureGap=4;pointerEvents=0;" vertex="1" parent="1">
          <mxGeometry x="380" y="260.48" width="100" height="30" as="geometry" />
        </mxCell>
        <mxCell id="kdAL58r6JePdcPZZWrmH-32" value="&lt;font style=&quot;font-size: 17px&quot;&gt;run&lt;/font&gt;" style="rounded=0;whiteSpace=wrap;html=1;hachureGap=4;pointerEvents=0;" vertex="1" parent="1">
          <mxGeometry x="520.48" y="260.48" width="100" height="30" as="geometry" />
        </mxCell>
        <mxCell id="kdAL58r6JePdcPZZWrmH-33" value="" style="endArrow=classic;html=1;startSize=14;endSize=11;sourcePerimeterSpacing=8;targetPerimeterSpacing=8;strokeWidth=2;" edge="1" parent="1">
          <mxGeometry width="50" height="50" relative="1" as="geometry">
            <mxPoint x="320" y="114.75999999999999" as="sourcePoint" />
            <mxPoint x="360" y="114.75999999999999" as="targetPoint" />
          </mxGeometry>
        </mxCell>
        <mxCell id="kdAL58r6JePdcPZZWrmH-34" value="" style="endArrow=classic;html=1;startSize=14;endSize=11;sourcePerimeterSpacing=8;targetPerimeterSpacing=8;strokeWidth=2;" edge="1" parent="1">
          <mxGeometry width="50" height="50" relative="1" as="geometry">
            <mxPoint x="360" y="160" as="sourcePoint" />
            <mxPoint x="330" y="180" as="targetPoint" />
          </mxGeometry>
        </mxCell>
        <mxCell id="kdAL58r6JePdcPZZWrmH-35" value="" style="endArrow=classic;html=1;startSize=14;endSize=11;sourcePerimeterSpacing=8;targetPerimeterSpacing=8;strokeWidth=2;" edge="1" parent="1">
          <mxGeometry width="50" height="50" relative="1" as="geometry">
            <mxPoint x="330" y="240" as="sourcePoint" />
            <mxPoint x="370" y="240" as="targetPoint" />
          </mxGeometry>
        </mxCell>
      </root>
    </mxGraphModel>
  </diagram>
</mxfile>
